<mxfile host="app.diagrams.net" modified="2023-07-07T02:57:16.065Z" agent="Mozilla/5.0 (Windows NT 10.0; Win64; x64) AppleWebKit/537.36 (KHTML, like Gecko) Chrome/113.0.0.0 Safari/537.36 OPR/99.0.0.0" etag="qqGiHp_JNMQqxjjzGGEn" version="21.6.1" type="device">
  <diagram name="Page-1" id="e7e014a7-5840-1c2e-5031-d8a46d1fe8dd">
    <mxGraphModel dx="988" dy="525" grid="1" gridSize="10" guides="1" tooltips="1" connect="1" arrows="1" fold="1" page="1" pageScale="1" pageWidth="1169" pageHeight="826" background="none" math="0" shadow="0">
      <root>
        <mxCell id="0" />
        <mxCell id="1" parent="0" />
        <mxCell id="2" value="Admin" style="swimlane;whiteSpace=wrap" parent="1" vertex="1">
          <mxGeometry x="150" y="20" width="280" height="950" as="geometry" />
        </mxCell>
        <mxCell id="coWxCeMdqgrI4QlaSuaD-64" value="" style="ellipse;html=1;shape=startState;fillColor=#000000;strokeColor=#ff0000;" parent="2" vertex="1">
          <mxGeometry x="120" y="50" width="30" height="30" as="geometry" />
        </mxCell>
        <mxCell id="coWxCeMdqgrI4QlaSuaD-65" value="" style="edgeStyle=orthogonalEdgeStyle;html=1;verticalAlign=bottom;endArrow=open;endSize=8;strokeColor=#ff0000;rounded=0;" parent="2" source="coWxCeMdqgrI4QlaSuaD-64" edge="1">
          <mxGeometry relative="1" as="geometry">
            <mxPoint x="135" y="140" as="targetPoint" />
          </mxGeometry>
        </mxCell>
        <mxCell id="coWxCeMdqgrI4QlaSuaD-66" value="Masuk menu" style="rounded=1;whiteSpace=wrap;html=1;arcSize=40;fontColor=#000000;fillColor=#ffffc0;strokeColor=#ff0000;" parent="2" vertex="1">
          <mxGeometry x="75" y="140" width="120" height="40" as="geometry" />
        </mxCell>
        <mxCell id="coWxCeMdqgrI4QlaSuaD-67" value="" style="edgeStyle=orthogonalEdgeStyle;html=1;verticalAlign=bottom;endArrow=open;endSize=8;strokeColor=#ff0000;rounded=0;" parent="2" source="coWxCeMdqgrI4QlaSuaD-66" edge="1">
          <mxGeometry relative="1" as="geometry">
            <mxPoint x="380" y="160" as="targetPoint" />
            <Array as="points">
              <mxPoint x="288" y="160" />
              <mxPoint x="288" y="161" />
            </Array>
          </mxGeometry>
        </mxCell>
        <mxCell id="coWxCeMdqgrI4QlaSuaD-113" value="klik simpan" style="rounded=1;whiteSpace=wrap;html=1;arcSize=40;fontColor=#000000;fillColor=#ffffc0;strokeColor=#ff0000;" parent="2" vertex="1">
          <mxGeometry x="75" y="510" width="120" height="40" as="geometry" />
        </mxCell>
        <mxCell id="YcXmiPu983y7gy3dxmur-3" value="pilih menu pertanyaan" style="rounded=1;whiteSpace=wrap;html=1;arcSize=40;fontColor=#000000;fillColor=#ffffc0;strokeColor=#ff0000;" vertex="1" parent="2">
          <mxGeometry x="75" y="240" width="120" height="40" as="geometry" />
        </mxCell>
        <mxCell id="YcXmiPu983y7gy3dxmur-4" value="" style="edgeStyle=orthogonalEdgeStyle;html=1;verticalAlign=bottom;endArrow=open;endSize=8;strokeColor=#ff0000;rounded=0;" edge="1" source="YcXmiPu983y7gy3dxmur-3" parent="2">
          <mxGeometry relative="1" as="geometry">
            <mxPoint x="135" y="340" as="targetPoint" />
          </mxGeometry>
        </mxCell>
        <mxCell id="YcXmiPu983y7gy3dxmur-16" value="Memilih pertanyaan" style="rounded=1;whiteSpace=wrap;html=1;arcSize=40;fontColor=#000000;fillColor=#ffffc0;strokeColor=#ff0000;" vertex="1" parent="2">
          <mxGeometry x="75" y="340" width="120" height="40" as="geometry" />
        </mxCell>
        <mxCell id="YcXmiPu983y7gy3dxmur-27" value="mengisi data" style="rounded=1;whiteSpace=wrap;html=1;arcSize=40;fontColor=#000000;fillColor=#ffffc0;strokeColor=#ff0000;" vertex="1" parent="2">
          <mxGeometry x="75" y="410" width="120" height="40" as="geometry" />
        </mxCell>
        <mxCell id="YcXmiPu983y7gy3dxmur-28" value="" style="edgeStyle=orthogonalEdgeStyle;html=1;verticalAlign=bottom;endArrow=open;endSize=8;strokeColor=#ff0000;rounded=0;" edge="1" source="YcXmiPu983y7gy3dxmur-27" parent="2">
          <mxGeometry relative="1" as="geometry">
            <mxPoint x="135" y="510" as="targetPoint" />
          </mxGeometry>
        </mxCell>
        <mxCell id="YcXmiPu983y7gy3dxmur-43" value="pilih menu hapus" style="rounded=1;whiteSpace=wrap;html=1;arcSize=40;fontColor=#000000;fillColor=#ffffc0;strokeColor=#ff0000;" vertex="1" parent="2">
          <mxGeometry x="70" y="670" width="120" height="40" as="geometry" />
        </mxCell>
        <mxCell id="3" value="Menu pada admin" style="swimlane;whiteSpace=wrap;startSize=23;strokeColor=default;" parent="1" vertex="1">
          <mxGeometry x="430" y="20" width="280" height="950" as="geometry" />
        </mxCell>
        <mxCell id="coWxCeMdqgrI4QlaSuaD-70" value="menampilkan menu website" style="rounded=1;whiteSpace=wrap;html=1;arcSize=40;fontColor=#000000;fillColor=#ffffc0;strokeColor=#ff0000;" parent="3" vertex="1">
          <mxGeometry x="100" y="140" width="120" height="40" as="geometry" />
        </mxCell>
        <mxCell id="coWxCeMdqgrI4QlaSuaD-71" value="" style="edgeStyle=orthogonalEdgeStyle;html=1;verticalAlign=bottom;endArrow=open;endSize=8;strokeColor=#ff0000;rounded=0;" parent="3" source="coWxCeMdqgrI4QlaSuaD-70" edge="1">
          <mxGeometry relative="1" as="geometry">
            <mxPoint x="160" y="240" as="targetPoint" />
          </mxGeometry>
        </mxCell>
        <mxCell id="coWxCeMdqgrI4QlaSuaD-109" value="" style="ellipse;html=1;shape=endState;fillColor=#000000;strokeColor=#ff0000;" parent="3" vertex="1">
          <mxGeometry x="145" y="860" width="30" height="30" as="geometry" />
        </mxCell>
        <mxCell id="YcXmiPu983y7gy3dxmur-21" value="" style="rhombus;whiteSpace=wrap;html=1;fontColor=#000000;fillColor=#ffffc0;strokeColor=#ff0000;" vertex="1" parent="3">
          <mxGeometry x="120" y="240" width="80" height="40" as="geometry" />
        </mxCell>
        <mxCell id="YcXmiPu983y7gy3dxmur-22" value="" style="edgeStyle=orthogonalEdgeStyle;html=1;align=left;verticalAlign=bottom;endArrow=open;endSize=8;strokeColor=#ff0000;rounded=0;exitX=0.5;exitY=1;exitDx=0;exitDy=0;entryX=0.5;entryY=0;entryDx=0;entryDy=0;" edge="1" source="YcXmiPu983y7gy3dxmur-21" parent="3" target="YcXmiPu983y7gy3dxmur-40">
          <mxGeometry x="-1" relative="1" as="geometry">
            <mxPoint x="160" y="580" as="targetPoint" />
          </mxGeometry>
        </mxCell>
        <mxCell id="YcXmiPu983y7gy3dxmur-24" value="Apakah ingin&lt;br&gt;menambah data&lt;br&gt;pertanyaan?" style="text;align=center;fontStyle=1;verticalAlign=middle;spacingLeft=3;spacingRight=3;strokeColor=none;rotatable=0;points=[[0,0.5],[1,0.5]];portConstraint=eastwest;html=1;" vertex="1" parent="3">
          <mxGeometry x="180" y="220" width="80" height="26" as="geometry" />
        </mxCell>
        <mxCell id="YcXmiPu983y7gy3dxmur-25" value="menampilkan daftar pertanyaan" style="rounded=1;whiteSpace=wrap;html=1;arcSize=40;fontColor=#000000;fillColor=#ffffc0;strokeColor=#ff0000;" vertex="1" parent="3">
          <mxGeometry x="20" y="340" width="120" height="40" as="geometry" />
        </mxCell>
        <mxCell id="YcXmiPu983y7gy3dxmur-29" value="data telah disimpan" style="rounded=1;whiteSpace=wrap;html=1;arcSize=40;fontColor=#000000;fillColor=#ffffc0;strokeColor=#ff0000;" vertex="1" parent="3">
          <mxGeometry x="20" y="510" width="120" height="40" as="geometry" />
        </mxCell>
        <mxCell id="YcXmiPu983y7gy3dxmur-30" value="" style="edgeStyle=orthogonalEdgeStyle;html=1;verticalAlign=bottom;endArrow=open;endSize=8;strokeColor=#ff0000;rounded=0;" edge="1" source="YcXmiPu983y7gy3dxmur-29" parent="3">
          <mxGeometry relative="1" as="geometry">
            <mxPoint x="80" y="610" as="targetPoint" />
          </mxGeometry>
        </mxCell>
        <mxCell id="YcXmiPu983y7gy3dxmur-36" value="" style="verticalLabelPosition=bottom;verticalAlign=top;html=1;shape=mxgraph.flowchart.or;strokeWidth=4;" vertex="1" parent="3">
          <mxGeometry x="65" y="610" width="30" height="30" as="geometry" />
        </mxCell>
        <mxCell id="YcXmiPu983y7gy3dxmur-40" value="" style="rhombus;whiteSpace=wrap;html=1;fontColor=#000000;fillColor=#ffffc0;strokeColor=#ff0000;" vertex="1" parent="3">
          <mxGeometry x="120" y="670" width="80" height="40" as="geometry" />
        </mxCell>
        <mxCell id="YcXmiPu983y7gy3dxmur-41" value="" style="edgeStyle=orthogonalEdgeStyle;html=1;align=left;verticalAlign=bottom;endArrow=open;endSize=8;strokeColor=#ff0000;rounded=0;entryX=0.5;entryY=0;entryDx=0;entryDy=0;" edge="1" source="YcXmiPu983y7gy3dxmur-40" parent="3" target="coWxCeMdqgrI4QlaSuaD-109">
          <mxGeometry x="-1" relative="1" as="geometry">
            <mxPoint x="300" y="690" as="targetPoint" />
          </mxGeometry>
        </mxCell>
        <mxCell id="YcXmiPu983y7gy3dxmur-45" value="data telah dihapus" style="rounded=1;whiteSpace=wrap;html=1;arcSize=40;fontColor=#000000;fillColor=#ffffc0;strokeColor=#ff0000;" vertex="1" parent="3">
          <mxGeometry x="20" y="720" width="120" height="40" as="geometry" />
        </mxCell>
        <mxCell id="YcXmiPu983y7gy3dxmur-46" value="" style="edgeStyle=orthogonalEdgeStyle;html=1;verticalAlign=bottom;endArrow=open;endSize=8;strokeColor=#ff0000;rounded=0;entryX=0.5;entryY=0;entryDx=0;entryDy=0;entryPerimeter=0;" edge="1" source="YcXmiPu983y7gy3dxmur-45" parent="3" target="YcXmiPu983y7gy3dxmur-47">
          <mxGeometry relative="1" as="geometry">
            <mxPoint x="70" y="830" as="targetPoint" />
          </mxGeometry>
        </mxCell>
        <mxCell id="YcXmiPu983y7gy3dxmur-47" value="" style="verticalLabelPosition=bottom;verticalAlign=top;html=1;shape=mxgraph.flowchart.or;strokeWidth=4;" vertex="1" parent="3">
          <mxGeometry x="65" y="830" width="30" height="30" as="geometry" />
        </mxCell>
        <mxCell id="YcXmiPu983y7gy3dxmur-48" value="&lt;font style=&quot;font-size: 8px;&quot;&gt;tidak&lt;/font&gt;" style="text;align=center;fontStyle=1;verticalAlign=middle;spacingLeft=3;spacingRight=3;strokeColor=none;rotatable=0;points=[[0,0.5],[1,0.5]];portConstraint=eastwest;html=1;" vertex="1" parent="3">
          <mxGeometry x="130" y="410" width="80" height="26" as="geometry" />
        </mxCell>
        <mxCell id="YcXmiPu983y7gy3dxmur-18" value="" style="edgeStyle=orthogonalEdgeStyle;html=1;verticalAlign=bottom;endArrow=open;endSize=8;strokeColor=#ff0000;rounded=0;exitX=1;exitY=0.5;exitDx=0;exitDy=0;" edge="1" parent="1" source="YcXmiPu983y7gy3dxmur-16">
          <mxGeometry relative="1" as="geometry">
            <mxPoint x="450" y="380" as="targetPoint" />
            <mxPoint x="600" y="410" as="sourcePoint" />
          </mxGeometry>
        </mxCell>
        <mxCell id="YcXmiPu983y7gy3dxmur-23" value="yes" style="edgeStyle=orthogonalEdgeStyle;html=1;align=left;verticalAlign=top;endArrow=open;endSize=8;strokeColor=#ff0000;rounded=0;exitX=0;exitY=0.5;exitDx=0;exitDy=0;entryX=1;entryY=0.5;entryDx=0;entryDy=0;" edge="1" source="YcXmiPu983y7gy3dxmur-21" parent="1" target="YcXmiPu983y7gy3dxmur-3">
          <mxGeometry x="-1" relative="1" as="geometry">
            <mxPoint x="590" y="360" as="targetPoint" />
          </mxGeometry>
        </mxCell>
        <mxCell id="YcXmiPu983y7gy3dxmur-26" value="" style="edgeStyle=orthogonalEdgeStyle;html=1;verticalAlign=bottom;endArrow=open;endSize=8;strokeColor=#ff0000;rounded=0;entryX=1;entryY=0.5;entryDx=0;entryDy=0;exitX=0.5;exitY=1;exitDx=0;exitDy=0;" edge="1" source="YcXmiPu983y7gy3dxmur-25" parent="1" target="YcXmiPu983y7gy3dxmur-27">
          <mxGeometry relative="1" as="geometry">
            <mxPoint x="510" y="463" as="targetPoint" />
          </mxGeometry>
        </mxCell>
        <mxCell id="coWxCeMdqgrI4QlaSuaD-114" value="" style="edgeStyle=orthogonalEdgeStyle;html=1;verticalAlign=bottom;endArrow=open;endSize=8;strokeColor=#ff0000;rounded=0;exitX=1;exitY=0.5;exitDx=0;exitDy=0;entryX=0;entryY=0.5;entryDx=0;entryDy=0;" parent="1" source="coWxCeMdqgrI4QlaSuaD-113" edge="1" target="YcXmiPu983y7gy3dxmur-29">
          <mxGeometry relative="1" as="geometry">
            <mxPoint x="285" y="660" as="targetPoint" />
          </mxGeometry>
        </mxCell>
        <mxCell id="YcXmiPu983y7gy3dxmur-42" value="yes" style="edgeStyle=orthogonalEdgeStyle;html=1;align=left;verticalAlign=top;endArrow=open;endSize=8;strokeColor=#ff0000;rounded=0;entryX=1;entryY=0.5;entryDx=0;entryDy=0;" edge="1" source="YcXmiPu983y7gy3dxmur-40" parent="1" target="YcXmiPu983y7gy3dxmur-43">
          <mxGeometry x="-1" relative="1" as="geometry">
            <mxPoint x="590" y="790" as="targetPoint" />
          </mxGeometry>
        </mxCell>
        <mxCell id="YcXmiPu983y7gy3dxmur-44" value="" style="edgeStyle=orthogonalEdgeStyle;html=1;verticalAlign=bottom;endArrow=open;endSize=8;strokeColor=#ff0000;rounded=0;entryX=0;entryY=0.5;entryDx=0;entryDy=0;exitX=0.417;exitY=1;exitDx=0;exitDy=0;exitPerimeter=0;" edge="1" source="YcXmiPu983y7gy3dxmur-43" parent="1" target="YcXmiPu983y7gy3dxmur-45">
          <mxGeometry relative="1" as="geometry">
            <mxPoint x="280" y="800" as="targetPoint" />
          </mxGeometry>
        </mxCell>
      </root>
    </mxGraphModel>
  </diagram>
</mxfile>
